<?xml version="1.0" encoding="utf-8"?>
<!-- Generator: Adobe Illustrator 25.2.1, SVG Export Plug-In . SVG Version: 6.00 Build 0)  -->
<svg version="1.1" id="Warstwa_1" xmlns="http://www.w3.org/2000/svg" xmlns:xlink="http://www.w3.org/1999/xlink" x="0px" y="0px"
	 viewBox="120 23 110 110" style="enable-background:new 0 0 646.9 155.9;" xml:space="preserve">
<style type="text/css">
	.st1{fill:#3388BF;}
</style>
<g>
		<circle cx="175" cy="78" r="46" stroke="#1C5EA6" stroke-width="15" fill="none" />

<path class="st1" d="M202.1,90.5l5.2-3c0.6-2.2,1.1-4.5,1.2-6.9c-0.1,0-0.2,0-0.3,0c-0.5,0-1,0.1-1.5,0.4l-10.5,6.2l-6.2-3.6V72.4
			l6.2-3.6l10.5,6.2c0.6,0.3,1.2,0.4,1.8,0.4c-0.2-2.4-0.6-4.7-1.2-6.9l-5.1-3l3.3-1.9c-0.8-1.8-1.8-3.5-2.9-5.1l-3.3,1.9l-0.1-6
			c-1.6-1.7-3.4-3.2-5.4-4.6c-0.4,0.5-0.6,1.1-0.6,1.7l0.1,12.2l-6.2,3.6l-9.6-5.6v-7.1l10.6-6c0.6-0.3,1-0.8,1.2-1.3
			c-2.1-1-4.3-1.8-6.6-2.4l-5.2,2.9v-3.8c-1-0.1-2-0.1-2.9-0.1c-1,0-2,0.1-2.9,0.1v3.8l-5.2-2.9c-2.3,0.6-4.5,1.4-6.6,2.4
			c0.2,0.5,0.7,1,1.2,1.3l10.6,6v7.1l-9.6,5.6l-6.2-3.6l0.1-12.2c0-0.7-0.2-1.3-0.6-1.8c-1.9,1.3-3.7,2.9-5.4,4.6l-0.1,6l-3.3-1.9
			c-1.1,1.6-2.1,3.3-2.9,5.1l3.3,1.9l-5.2,3c-0.6,2.2-1.1,4.5-1.2,6.9c0.6,0.1,1.2-0.1,1.8-0.4l10.5-6.2l6.2,3.6v11.1l-6.2,3.6
			l-10.5-6.2c-0.5-0.3-1-0.4-1.5-0.4c-0.1,0-0.2,0-0.3,0c0.2,2.4,0.6,4.7,1.2,6.9l5.2,3l-3.3,1.9c0.8,1.8,1.8,3.5,2.9,5.1l3.3-1.9
			l0.1,6c1.6,1.7,3.4,3.2,5.4,4.6c0.4-0.5,0.6-1.1,0.6-1.7l-0.1-12.2l6.2-3.6l9.6,5.6v7.1l-10.6,6c-0.6,0.3-1,0.8-1.2,1.3
			c2.1,1,4.3,1.8,6.6,2.4l5.2-2.9v3.8c1,0.1,2,0.1,2.9,0.1c1,0,2-0.1,2.9-0.1v-3.8l5.2,2.9c2.3-0.6,4.5-1.4,6.6-2.4
			c-0.2-0.5-0.7-1-1.2-1.3l-10.6-6v-7.1l9.6-5.6l6.2,3.6l-0.1,12.2c0,0.7,0.2,1.3,0.6,1.7c1.9-1.3,3.7-2.9,5.4-4.6l0.1-6l3.3,1.9
			c1.1-1.6,2.1-3.3,2.9-5.1L202.1,90.5z M184.2,83.5l-9.6,5.6l-9.6-5.6V72.4l9.6-5.6l9.6,5.6V83.5z"/>
</g>
</svg>
