<?xml version="1.0" encoding="utf-8"?>
<!-- Generator: Adobe Illustrator 25.2.1, SVG Export Plug-In . SVG Version: 6.00 Build 0)  -->
<svg version="1.1" id="Warstwa_1" xmlns="http://www.w3.org/2000/svg" xmlns:xlink="http://www.w3.org/1999/xlink" x="0px" y="0px"
	 viewBox="10 0 230.9 155.9" style="enable-background:new 0 0 230.9 155.9;" xml:space="preserve">
<style type="text/css">
	.st0{fill:#1C5EA6;}
	.st1{fill:#3388BF;}
	.st2{fill:#40B0D9;}
</style>
<g>
	<g>
		<path class="st0" d="M116.9,91.5H90.1c-3.8,0-6.8,3.1-6.8,6.8v0c0,3.8,3.1,6.8,6.8,6.8h26.9c3.8,0,6.8-3.1,6.8-6.8v0
			C123.8,94.6,120.7,91.5,116.9,91.5z"/>
		<path class="st0" d="M122.2,108.5c0,0-2.1,1.3-4.8,1.3c-2.7,0-2.9,1.7-2.9,1.7s3.2,0.6,4.8,0.5c1.5-0.1,3.5-0.2,3.7-0.6
			c0.2-0.3,0.6-1,0.6-1s0.1-0.8,0.1-0.9s-0.7-0.7-0.7-0.7L122.2,108.5z"/>
		<path class="st0" d="M120.1,50.7h-17.9c-3.8,0-6.8,3.1-6.8,6.8v0c0,3.8,3.1,6.8,6.8,6.8h17.9c3.8,0,6.8-3.1,6.8-6.8v0
			C127,53.8,123.9,50.7,120.1,50.7z"/>
		<path class="st1" d="M85.1,51.9H60.7c-3.1,0-5.7,2.5-5.7,5.7v0c0,3.1,2.5,5.7,5.7,5.7h24.4c3.1,0,5.7-2.5,5.7-5.7v0
			C90.7,54.5,88.2,51.9,85.1,51.9z"/>
		<path class="st1" d="M80.5,72.3H56.1c-3.1,0-5.7,2.5-5.7,5.7v0c0,3.1,2.5,5.7,5.7,5.7h24.4c3.1,0,5.7-2.5,5.7-5.7v0
			C86.2,74.8,83.6,72.3,80.5,72.3z"/>
		<path class="st2" d="M41.6,73.7H28.4c-2.3,0-4.2,1.9-4.2,4.2v0c0,2.3,1.9,4.2,4.2,4.2h13.2c2.3,0,4.2-1.9,4.2-4.2v0
			C45.9,75.6,44,73.7,41.6,73.7z"/>
		<path class="st1" d="M72.9,92.7H60.7c-3.1,0-5.7,2.5-5.7,5.7v0c0,3.1,2.5,5.7,5.7,5.7h12.2c3.1,0,5.7-2.5,5.7-5.7v0
			C78.6,95.3,76.1,92.7,72.9,92.7z"/>
		<path class="st1" d="M95.9,33.1H80.5c-3.1,0-5.7,2.5-5.7,5.7v0c0,3.1,2.5,5.7,5.7,5.7h15.4c3.1,0,5.7-2.5,5.7-5.7v0
			C101.6,35.7,99,33.1,95.9,33.1z"/>
		<path class="st1" d="M96.6,111.7H81.2c-3.1,0-5.7,2.5-5.7,5.7v0c0,3.1,2.5,5.7,5.7,5.7h15.4c3.1,0,5.7-2.5,5.7-5.7v0
			C102.3,114.2,99.7,111.7,96.6,111.7z"/>
		<path class="st0" d="M122.8,46.5c0,0-1.1-0.3-2.6-0.3c-1.4,0,0-1.1,0-1.1h3.4l0.5,0.3L122.8,46.5z"/>
		<path class="st1" d="M46.2,94.1L46.2,94.1c-2.3,0-4.2,1.9-4.2,4.2v0c0,2.3,1.9,4.2,4.2,4.2h0c2.3,0,4.2-1.9,4.2-4.2v0
			C50.5,96,48.6,94.1,46.2,94.1z"/>
		<path class="st2" d="M16.5,75L16.5,75c-1.6,0-3,1.3-3,3v0c0,1.6,1.3,3,3,3h0c1.6,0,3-1.3,3-3v0C19.5,76.3,18.2,75,16.5,75z"/>
		<path class="st1" d="M46.2,53.4L46.2,53.4c-2.3,0-4.2,1.9-4.2,4.2v0c0,2.3,1.9,4.2,4.2,4.2h0c2.3,0,4.2-1.9,4.2-4.2v0
			C50.4,55.3,48.5,53.4,46.2,53.4z"/>
		<path class="st0" d="M234.5,69c-4.3-29.2-29.5-51.6-59.9-51.6c-14.7,0-28.1,5.2-38.6,13.9h-22.2c-4.2,0-7.5,3.4-7.5,7.5
			c0,3.7,2.7,6.8,6.2,7.4h7.7h2.8c-0.1,0.1-0.1,0.2-0.2,0.3c5,1.2,8.8,5.7,8.8,11.1c0,6.3-5.1,11.4-11.4,11.4h-5.6H99.8
			c-5,0-9,4-9,9c0,4.8,3.7,8.7,8.4,9H117c6.3,0,11.4,5.1,11.4,11.4c0,4.4-2.5,8.3-6.2,10.2c0.3,0.4,0.5,0.9,0.8,1.3h-9.3
			c-4.2,0-7.5,3.4-7.5,7.5s3.4,7.5,7.5,7.5h22.5c10.4,8.5,23.8,13.7,38.3,13.7c14.5,0,27.9-5.1,38.3-13.7
			c11.4-9.3,19.3-22.7,21.6-37.9c0.4-2.9,0.7-6,0.7-9C235.1,74.9,234.9,71.9,234.5,69z M174.5,117c-21.6,0-39.1-17.5-39.1-39.1
			s17.5-39.1,39.1-39.1s39.1,17.5,39.1,39.1S196.1,117,174.5,117z"/>
		<path class="st1" d="M202.1,90.5l5.2-3c0.6-2.2,1.1-4.5,1.2-6.9c-0.1,0-0.2,0-0.3,0c-0.5,0-1,0.1-1.5,0.4l-10.5,6.2l-6.2-3.6V72.4
			l6.2-3.6l10.5,6.2c0.6,0.3,1.2,0.4,1.8,0.4c-0.2-2.4-0.6-4.7-1.2-6.9l-5.1-3l3.3-1.9c-0.8-1.8-1.8-3.5-2.9-5.1l-3.3,1.9l-0.1-6
			c-1.6-1.7-3.4-3.2-5.4-4.6c-0.4,0.5-0.6,1.1-0.6,1.7l0.1,12.2l-6.2,3.6l-9.6-5.6v-7.1l10.6-6c0.6-0.3,1-0.8,1.2-1.3
			c-2.1-1-4.3-1.8-6.6-2.4l-5.2,2.9v-3.8c-1-0.1-2-0.1-2.9-0.1c-1,0-2,0.1-2.9,0.1v3.8l-5.2-2.9c-2.3,0.6-4.5,1.4-6.6,2.4
			c0.2,0.5,0.7,1,1.2,1.3l10.6,6v7.1l-9.6,5.6l-6.2-3.6l0.1-12.2c0-0.7-0.2-1.3-0.6-1.8c-1.9,1.3-3.7,2.9-5.4,4.6l-0.1,6l-3.3-1.9
			c-1.1,1.6-2.1,3.3-2.9,5.1l3.3,1.9l-5.2,3c-0.6,2.2-1.1,4.5-1.2,6.9c0.6,0.1,1.2-0.1,1.8-0.4l10.5-6.2l6.2,3.6v11.1l-6.2,3.6
			l-10.5-6.2c-0.5-0.3-1-0.4-1.5-0.4c-0.1,0-0.2,0-0.3,0c0.2,2.4,0.6,4.7,1.2,6.9l5.2,3l-3.3,1.9c0.8,1.8,1.8,3.5,2.9,5.1l3.3-1.9
			l0.1,6c1.6,1.7,3.4,3.2,5.4,4.6c0.4-0.5,0.6-1.1,0.6-1.7l-0.1-12.2l6.2-3.6l9.6,5.6v7.1l-10.6,6c-0.6,0.3-1,0.8-1.2,1.3
			c2.1,1,4.3,1.8,6.6,2.4l5.2-2.9v3.8c1,0.1,2,0.1,2.9,0.1c1,0,2-0.1,2.9-0.1v-3.8l5.2,2.9c2.3-0.6,4.5-1.4,6.6-2.4
			c-0.2-0.5-0.7-1-1.2-1.3l-10.6-6v-7.1l9.6-5.6l6.2,3.6l-0.1,12.2c0,0.7,0.2,1.3,0.6,1.7c1.9-1.3,3.7-2.9,5.4-4.6l0.1-6l3.3,1.9
			c1.1-1.6,2.1-3.3,2.9-5.1L202.1,90.5z M184.2,83.5l-9.6,5.6l-9.6-5.6V72.4l9.6-5.6l9.6,5.6V83.5z"/>
	</g>
</g>
</svg>
