<svg xmlns="http://www.w3.org/2000/svg" viewBox="-0.988125 -0.988125 164.65746 34.91375">
  <g transform="translate(-281.94065,-507.01843)">
    <path d="M 283.71561,507.01843 C 277.33311,527.26593 290.21559,539.95593 290.21561,539.95593 C 290.63561,535.09468 293.77813,531.51843 293.77811,531.51843 C 285.17186,519.55843 291.99685,507.01843 291.99686,507.01843 L 283.71561,507.01843 z M 316.59061,507.01843 C 316.59061,507.01843 323.41561,519.55843 314.80936,531.51843 C 314.80938,531.51843 317.98311,535.09468 318.40311,539.95593 C 318.40312,539.95593 331.25436,527.26593 324.87186,507.01843 L 316.59061,507.01843 z M 349.80936,508.73718 L 349.80936,535.73718 L 355.90311,535.73718 L 355.90311,533.70593 C 357.10061,535.64718 359.5206,536.39343 361.59061,536.39343 C 366.85936,536.39343 370.55939,531.55344 370.55936,525.79968 C 370.55936,520.08593 367.01064,515.48718 361.77811,515.48718 C 359.74186,515.48718 357.5231,516.11218 356.18436,517.83093 L 355.90311,518.20593 C 355.90311,518.20593 355.89434,512.14218 355.90311,508.76843 L 349.80936,508.73718 z M 413.37186,508.83093 L 413.37186,508.95593 L 413.37186,509.70593 L 413.34061,512.01843 L 413.34061,516.08093 L 411.27811,516.08093 L 411.27811,520.76843 L 413.34061,520.76843 L 413.34061,527.83093 C 413.27686,535.10968 415.05312,537.15718 423.93436,536.17468 L 423.87186,531.26843 C 423.56186,531.27718 421.63809,531.31093 421.18436,531.20593 C 420.25811,530.99343 419.48434,530.39344 419.43436,529.01843 L 419.43436,520.76843 L 423.59061,520.76843 L 423.59061,516.08093 L 419.43436,516.08093 L 419.43436,508.83093 L 413.37186,508.83093 z M 403.37186,515.26843 C 398.47186,515.20843 394.69685,516.96218 394.93436,522.58093 C 395.07936,525.99718 397.51934,527.11218 399.62186,527.67468 C 400.70061,527.96343 401.96809,528.14093 402.77811,528.42468 C 403.61061,528.71593 404.2156,529.14968 404.21561,530.01843 C 404.21561,531.24593 402.78184,531.79969 401.90311,531.79968 C 400.22561,531.79968 396.79811,531.66968 395.37186,530.70593 L 395.37186,535.36218 C 397.83811,536.35093 400.13814,536.36843 402.27811,536.39343 C 406.70811,536.44468 410.59061,534.36468 410.59061,529.33093 C 410.59061,525.80218 408.15558,524.47593 405.05936,523.67468 C 404.82686,523.61468 403.14563,523.36093 402.80936,523.23718 C 402.13311,522.99093 401.37185,522.57468 401.37186,521.79968 C 401.37186,520.63468 401.88314,519.39218 405.52811,519.86218 C 408.19311,520.20343 409.74684,520.70593 409.74686,520.70593 L 409.68436,516.23718 C 407.76311,515.38718 405.47811,515.29468 403.37186,515.26843 z M 337.68436,515.29968 C 331.75436,515.29968 327.59063,519.29343 327.59061,525.95593 C 327.59061,532.84093 332.10188,536.61218 338.15311,536.61218 C 342.26061,536.61218 345.95812,534.35718 347.68436,529.89343 L 341.37186,529.89343 C 340.61936,531.22718 339.56063,531.79968 338.12186,531.79968 C 335.29311,531.79968 333.84062,530.42718 333.84061,527.39343 L 348.15311,527.39343 L 348.30936,526.33093 C 348.30936,519.49718 343.99685,515.29968 337.68436,515.29968 z M 380.84061,515.54968 C 374.55061,515.54718 371.96559,520.08594 371.96561,525.79968 C 371.96561,531.51343 375.06937,536.41468 380.93436,536.39343 C 384.50186,536.38093 386.62188,533.67468 386.62186,533.67468 L 386.62186,535.86218 L 392.71561,535.86218 L 392.71561,516.11218 L 386.62186,516.11218 L 386.62186,518.23718 L 386.30936,517.83093 C 385.00811,516.11468 382.87813,515.54968 380.84061,515.54968 z M 434.34061,515.58093 C 428.83436,515.58093 424.02814,519.36093 424.02811,526.01843 C 424.02811,532.67468 428.86687,536.39343 434.34061,536.39343 C 439.84811,536.39343 444.62186,532.63718 444.62186,526.01843 C 444.62186,519.36093 439.84687,515.58093 434.34061,515.58093 z M 338.02811,519.86218 C 339.88686,519.86218 341.56438,521.25343 341.90311,523.26843 L 333.93436,523.26843 C 334.34811,521.09093 336.03184,519.86218 338.02811,519.86218 z M 359.46561,520.92468 C 359.63574,520.9071 359.78561,520.92468 359.96561,520.92468 C 362.84561,520.92468 364.49687,523.20968 364.49686,525.83093 C 364.49686,528.53843 362.83685,530.73718 359.96561,530.73718 C 357.09311,530.73718 355.46564,528.53843 355.46561,525.83093 C 355.46561,523.37351 356.91362,521.18848 359.46561,520.92468 z M 382.02811,520.92468 C 382.19824,520.9071 382.34811,520.92468 382.52811,520.92468 C 385.40686,520.92468 387.05937,523.20968 387.05936,525.83093 C 387.05936,528.53843 385.39935,530.73718 382.52811,530.73718 C 379.65561,530.73718 378.02813,528.53843 378.02811,525.83093 C 378.02811,523.37351 379.47611,521.18848 382.02811,520.92468 z M 434.34061,521.11218 C 437.13436,521.11218 438.68435,523.42843 438.68436,526.01843 C 438.68436,528.69593 437.12562,530.86218 434.34061,530.86218 C 431.55686,530.86218 429.96561,528.69593 429.96561,526.01843 C 429.96561,523.42843 431.54812,521.11218 434.34061,521.11218 z" fill="#333399"/>
    <path d="M 291.25811,523.16343 C 291.25811,523.16343 295.89686,518.43718 304.32436,518.43718 C 312.75061,518.43718 317.28561,523.14343 317.28561,523.14343 C 317.28561,523.14343 316.09561,527.99468 313.95936,530.52593 C 313.95936,530.52593 310.33436,526.47468 304.32436,526.47468 C 298.31311,526.47468 294.60686,530.60843 294.60686,530.60843 C 294.60686,530.60843 292.08936,527.18343 291.25811,523.16343" fill="#ed1c24"/>
  </g>
</svg>
